PathFileType	4	(X/Y/Z)	./resultDataOpenSim/trcMotMarkerGrf/sub09/qtm-05-03.trc
DataRate	CameraRate	NumFrames	NumMarkers	Units	OrigDataRate	OrigDataStartFrame	OrigNumFrames
250.000000	250.000000	13	24	m	250.000000	384	511
Frame#	Time	L.Toe.Tip			R.Toe.Tip			L.Ankle.Lat			R.Ankle.Lat			L.Ankle.Med			R.Ankle.Med			L.Heel			R.Heel			L.Knee.Lat			R.Knee.Lat			L.Knee.Med			R.Knee.Med			L.Thigh.Upper			R.Thigh.Upper			L.ASIS			R.ASIS			V.Sacral			L.Acromium			R.Acromium			C7			L.Elbow			R.Elbow			L.Wrist.Lat			R.Wrist.Lat
		X1	Y1	Z1	X2	Y2	Z2	X3	Y3	Z3	X4	Y4	Z4	X5	Y5	Z5	X6	Y6	Z6	X7	Y7	Z7	X8	Y8	Z8	X9	Y9	Z9	X10	Y10	Z10	X11	Y11	Z11	X12	Y12	Z12	X13	Y13	Z13	X14	Y14	Z14	X15	Y15	Z15	X16	Y16	Z16	X17	Y17	Z17	X18	Y18	Z18	X19	Y19	Z19	X20	Y20	Z20	X21	Y21	Z21	X22	Y22	Z22	X23	Y23	Z23	X24	Y24	Z24

384	1.532	0.93865431	0.13117891	0.040015773	1.0459431	0.03918893	0.15894471	0.8688696	0.26802452	-0.0029705996	0.90162057	0.060660602	0.19441973	0.89168322	0.25883213	0.092746414	0.91318208	0.098080428	0.10271509	0.78885001	0.28976943	0.036735107	0.82954022	0.045589702	0.1472062	1.1811224	0.52505752	-0.0030803295	1.0529549	0.49506479	0.25537657	1.1601069	0.51665904	0.12451773	1.0268688	0.48415183	0.12595988	0.98091167	0.88487442	-0.048556441	0.97222412	0.89432438	0.31974486	1.0470179	0.97342836	0.01061577	1.0530991	0.9795924	0.24767246	0.88453218	1.0329586	0.128486	1.0561051	1.4213294	-0.044395418	1.0416417	1.4401215	0.28568999	0.98108739	1.4815809	0.11837537	0.91935189	1.0787077	-0.086199261	0.89318495	1.1030162	0.37377877	1.0286709	0.84329094	-0.12604287	1.0646971	0.88336265	0.36464902
385	1.536	0.95697859	0.12839971	0.039995289	1.0460896	0.039203818	0.15886599	0.88280779	0.26286039	-0.0023650605	0.90171104	0.061222947	0.19420771	0.9064668	0.25392466	0.093334657	0.9134594	0.098677143	0.10265101	0.80223549	0.28178484	0.037660367	0.82968974	0.046454102	0.14681826	1.1890194	0.52759423	-0.0031003309	1.0538098	0.49465235	0.25487769	1.1702461	0.5192798	0.12482531	1.028305	0.48448366	0.12613991	0.986655	0.88620255	-0.048760531	0.97634598	0.89469469	0.32038336	1.0524049	0.97474723	0.010743633	1.0583726	0.9805322	0.24780518	0.88958115	1.033859	0.1285041	1.0606922	1.4223469	-0.044537709	1.0467705	1.4413384	0.28558511	0.98595913	1.4826405	0.11834683	0.92325697	1.0801725	-0.086359251	0.89892843	1.1040212	0.37413472	1.0310988	0.84437253	-0.12745647	1.0709328	0.8847521	0.3642064
386	1.54	0.97536265	0.12553828	0.040037023	1.0462006	0.039184007	0.15880109	0.89688365	0.25748125	-0.0017410519	0.90182369	0.061792423	0.1940213	0.92107698	0.24893656	0.093939992	0.91366435	0.099333999	0.10267603	0.81582482	0.27372891	0.038610776	0.82983948	0.047355092	0.14645012	1.196752	0.52994422	-0.0031333588	1.0544352	0.49398572	0.25403909	1.1801234	0.52174281	0.12499028	1.0297219	0.48485776	0.1262642	0.9922146	0.88744518	-0.048950099	0.98072918	0.89526109	0.32076788	1.057862	0.97598499	0.010860193	1.0636279	0.9814423	0.24794221	0.89461421	1.0347198	0.12850832	1.0652993	1.4233082	-0.044673503	1.0519022	1.4424927	0.28548302	0.99086391	1.4836628	0.1183357	0.92710873	1.0815602	-0.086535509	0.90467307	1.1049617	0.37449052	1.0335768	0.84542755	-0.12884427	1.0770857	0.8861128	0.36374915
387	1.544	0.99376678	0.12261617	0.040138807	1.0461908	0.039116523	0.15879165	0.91108741	0.25189939	-0.001094724	0.90195976	0.062364755	0.19386018	0.93570258	0.24385086	0.094538675	0.91395087	0.10011044	0.10281314	0.82962321	0.26563335	0.039636588	0.82997245	0.048266874	0.14607665	1.2043422	0.53210508	-0.0031558054	1.0551544	0.4934166	0.25326955	1.1897394	0.52404384	0.1250247	1.031251	0.48524635	0.12640511	0.99775702	0.88860461	-0.049117827	0.98538316	0.89600448	0.32090497	1.0633656	0.97715105	0.010977393	1.0688634	0.98232163	0.24808115	0.89965799	1.035554	0.12848441	1.0699256	1.4242112	-0.044805052	1.0570406	1.4435842	0.28538743	0.99578883	1.4846425	0.11834161	0.93090471	1.0828715	-0.086766004	0.91041966	1.1058367	0.37484422	1.0361058	0.84645439	-0.13020224	1.083174	0.88743599	0.36328586
388	1.548	1.0121916	0.11965576	0.040303932	1.0460995	0.039054516	0.15885061	0.92542905	0.24613974	-0.00044233867	0.9021192	0.06294102	0.1937256	0.95041918	0.23867029	0.09512738	0.91430394	0.10095714	0.10296725	0.84368243	0.25747696	0.040690581	0.83005214	0.049193201	0.14565648	1.2117998	0.53409216	-0.0031744645	1.0561063	0.49320171	0.25285096	1.1990842	0.52617789	0.1249338	1.0330312	0.48557944	0.12664844	1.0033593	0.88968679	-0.049250084	0.99017122	0.89681533	0.32092274	1.0688909	0.97825178	0.011100547	1.0740804	0.98317052	0.24822321	0.90473335	1.0363595	0.12842117	1.0745688	1.4250559	-0.044933932	1.0621885	1.4446139	0.28529849	1.0007233	1.4855681	0.11835237	0.93466814	1.0841232	-0.08706043	0.91616365	1.1066474	0.37519102	1.0386845	0.84745134	-0.13153569	1.089252	0.88870304	0.36282163
389	1.552	1.0306582	0.11667736	0.040531389	1.0461071	0.03908208	0.1589482	0.93993552	0.24023248	0.0001999082	0.90229277	0.063523162	0.19361774	0.9652465	0.23341173	0.095708858	0.91466541	0.1017286	0.1030335	0.85800896	0.24922904	0.041698895	0.83008013	0.050150659	0.14520614	1.2191057	0.53592086	-0.0032262821	1.0571174	0.49329366	0.2527156	1.2081524	0.52814065	0.12472478	1.0350321	0.48582042	0.12700001	1.0090174	0.89069779	-0.049340446	0.99499233	0.89762381	0.32091316	1.0744275	0.97928628	0.011227803	1.0792854	0.98399105	0.24837299	0.90984832	1.0371146	0.12831521	1.0792271	1.4258433	-0.045062822	1.0673409	1.4455831	0.28521063	1.0056694	1.4864414	0.11835892	0.93843111	1.0853366	-0.08736961	0.92189489	1.1073953	0.37552333	1.0413095	0.84841766	-0.13285147	1.0953619	0.88990571	0.36234875
390	1.556	1.0491821	0.11370603	0.040817719	1.0463417	0.039225228	0.15906005	0.95463359	0.23420317	0.00082755679	0.90246747	0.06411241	0.193537	0.98021938	0.22809062	0.096257369	0.91504873	0.10232923	0.10297205	0.87258242	0.24086155	0.04260505	0.83011229	0.051143688	0.14481325	1.2262217	0.53759108	-0.0033498518	1.0580584	0.49353717	0.25271019	1.2169443	0.52992845	0.12440793	1.0370618	0.4860344	0.12738627	1.0146979	0.89164182	-0.04939948	0.99980487	0.89841302	0.32091193	1.079974	0.98024959	0.011357623	1.084486	0.9847856	0.24853508	0.91499682	1.037776	0.12816516	1.0839022	1.4265739	-0.04519252	1.0724942	1.4464941	0.28512199	1.0106319	1.4872713	0.11835831	0.94221692	1.0865187	-0.087641542	0.9276114	1.1080842	0.37583884	1.0439831	0.84935196	-0.13415069	1.1015045	0.89104682	0.36186134
391	1.56	1.0677682	0.11076641	0.041161169	1.0467338	0.039418863	0.15918849	0.96953169	0.22806888	0.001446703	0.90264293	0.064707036	0.19348174	0.99538642	0.22271657	0.096736161	0.91544393	0.10279745	0.10275587	0.8873949	0.23235315	0.043389797	0.83020363	0.052151356	0.14454419	1.2331189	0.539085	-0.0035612001	1.0590396	0.49385699	0.25281982	1.2254634	0.53153788	0.12399506	1.0389437	0.48632912	0.1277215	1.0203715	0.89252149	-0.049443404	1.0045904	0.89918327	0.32092557	1.0855259	0.98113929	0.011489855	1.0896858	0.98555327	0.24871013	0.92016866	1.0382937	0.12796917	1.0885969	1.4272509	-0.045319704	1.0776553	1.4473492	0.28504026	1.0156073	1.4880563	0.11835127	0.94602899	1.0876585	-0.087877305	0.93332394	1.1087193	0.37614285	1.0467153	0.85025276	-0.13543156	1.1076606	0.89212706	0.36136619
392	1.564	1.0864278	0.10787285	0.041569519	1.0470846	0.03956548	0.15930782	0.98462118	0.2218447	0.0020658092	0.90282618	0.065306872	0.19344653	1.0107357	0.21730143	0.097172619	0.9157452	0.10322457	0.10236523	0.90244432	0.22370052	0.044085929	0.83035809	0.053144544	0.14437846	1.2397858	0.5403846	-0.0038641585	1.0602145	0.49422909	0.25308155	1.2337131	0.53296553	0.12349826	1.040646	0.48674859	0.12796753	1.0260262	0.89333623	-0.049482564	1.009346	0.8999316	0.32094826	1.0910815	0.98195628	0.011621132	1.0948841	0.9862892	0.24889472	0.92537537	1.0386614	0.12773328	1.0933098	1.4278804	-0.0454411	1.0828376	1.4481514	0.2849778	1.0205899	1.4887909	0.11834046	0.94985681	1.0887455	-0.088115977	0.9390406	1.1093006	0.37643905	1.0495156	0.85111944	-0.1366909	1.1138173	0.89313968	0.36088203
393	1.568	1.105194	0.10503103	0.042063213	1.0472292	0.039610194	0.15935517	0.99988848	0.21554595	0.0026900136	0.90301653	0.065915833	0.19342552	1.0262005	0.21186389	0.097663291	0.91592964	0.10366429	0.10191033	0.91772212	0.21492885	0.04475759	0.83054661	0.054111967	0.14425733	1.2462331	0.54148963	-0.0042536392	1.0616095	0.49462424	0.25346297	1.2416968	0.53420791	0.12292943	1.0422907	0.4872248	0.12817631	1.0316726	0.89408034	-0.049525561	1.0141006	0.90065348	0.32096949	1.0966478	0.98270091	0.011748551	1.1000774	0.98698731	0.2490842	0.93065881	1.038946	0.12747706	1.0980373	1.42847	-0.045562299	1.0880507	1.4489052	0.28494409	1.025577	1.4894725	0.11832728	0.95369033	1.0897797	-0.088389574	0.944758	1.1098242	0.37672507	1.0523823	0.8519524	-0.13792358	1.1199684	0.89408074	0.36042611
394	1.572	1.1240919	0.10225206	0.042650733	1.0471734	0.039574725	0.15932298	1.0153221	0.20918417	0.0033203478	0.90320799	0.066532694	0.19341664	1.0417913	0.20642768	0.098261004	0.91619262	0.10415318	0.1016366	0.93321923	0.20608836	0.045454191	0.83074501	0.055060334	0.14414586	1.252507	0.54241178	-0.0046915516	1.0631547	0.49501619	0.25388657	1.2494172	0.53526149	0.12230024	1.0440545	0.48762418	0.12846951	1.0373435	0.89474644	-0.049589102	1.0189104	0.90134586	0.32097823	1.1022307	0.98337227	0.011873787	1.1052619	0.98764274	0.24927425	0.93604506	1.0392328	0.12722391	1.1027797	1.4290264	-0.045698492	1.0932915	1.4496122	0.28493674	1.0305675	1.4900917	0.11831301	0.9575309	1.0907651	-0.088696583	0.9504685	1.110288	0.37699694	1.0553056	0.85275302	-0.13912556	1.1261106	0.89496039	0.35999512
395	1.576	1.1430935	0.09955752	0.043296856	1.0470642	0.039524206	0.15928282	1.0309149	0.20277074	0.003956974	0.90339772	0.06714739	0.19342206	1.0576472	0.20102004	0.098885056	0.91671192	0.10473865	0.10168946	0.94893411	0.19723149	0.046186454	0.83094184	0.055998925	0.14403852	1.2586692	0.54315666	-0.0051138414	1.0647646	0.4953958	0.25429869	1.256877	0.53612276	0.12162229	1.045991	0.48788041	0.12891336	1.0430884	0.89533061	-0.049699426	1.0238013	0.9020062	0.32097025	1.1078279	0.98397006	0.011994091	1.1104384	0.98825451	0.24946212	0.94150286	1.0395474	0.12698485	1.1075399	1.4295501	-0.045857714	1.0985394	1.4502669	0.28493488	1.0355629	1.4906379	0.11830047	0.96139022	1.0917095	-0.089009766	0.95616799	1.1106931	0.37725236	1.0582781	0.8535215	-0.14029725	1.1322496	0.89580114	0.35955529
396	1.58	1.1621382	0.096971582	0.043938112	1.0469998	0.039492197	0.15928409	1.0466666	0.19632406	0.0046049917	0.90358439	0.067750637	0.19344279	1.0738607	0.19566217	0.099405971	0.91742758	0.10543172	0.10197898	0.96487523	0.1883843	0.046940739	0.83113126	0.05693189	0.14394238	1.2647492	0.54371994	-0.0054815553	1.0663819	0.49576313	0.25468822	1.2640788	0.53678836	0.12090714	1.0479721	0.48805873	0.12944116	1.0489525	0.89583405	-0.049879709	1.0286693	0.90263688	0.3209705	1.1134365	0.98449479	0.01210115	1.1156153	0.98882624	0.24964788	0.94696661	1.03986	0.12675097	1.1123159	1.4300282	-0.046024789	1.1037692	1.4508602	0.28491313	1.0405666	1.4911161	0.11828892	0.96528187	1.0926277	-0.089300253	0.96186024	1.1110423	0.37749155	1.0613034	0.85425568	-0.14144323	1.1384012	0.89662422	0.35905492
